<svg width="18" height="24" viewBox="0 0 18 24" fill="none" xmlns="http://www.w3.org/2000/svg">
<g filter="url(#filter0_d_1_313)">
<mask id="path-1-inside-1_1_313" fill="white">
<path d="M12.5 0H5.5C4.67285 0 4 0.672848 4 1.5V14.5C4 15.3272 4.67285 16 5.5 16H12.5C13.3272 16 14 15.3272 14 14.5V1.5C14 0.672848 13.3272 0 12.5 0ZM5.5 1H12.5C12.7759 1 13 1.22412 13 1.5V12H5V1.5C5 1.22412 5.22412 1 5.5 1ZM12.5 15H5.5C5.22412 15 5 14.7759 5 14.5V13H13V14.5C13 14.7759 12.7759 15 12.5 15Z"/>
</mask>
<path d="M12.5 0H5.5C4.67285 0 4 0.672848 4 1.5V14.5C4 15.3272 4.67285 16 5.5 16H12.5C13.3272 16 14 15.3272 14 14.5V1.5C14 0.672848 13.3272 0 12.5 0ZM5.5 1H12.5C12.7759 1 13 1.22412 13 1.5V12H5V1.5C5 1.22412 5.22412 1 5.5 1ZM12.5 15H5.5C5.22412 15 5 14.7759 5 14.5V13H13V14.5C13 14.7759 12.7759 15 12.5 15Z" fill="#757575"/>
<path d="M13 12V13H14V12H13ZM5 12H4V13H5V12ZM5 13V12H4V13H5ZM13 13H14V12H13V13ZM12.5 -1H5.5V1H12.5V-1ZM5.5 -1C4.12056 -1 3 0.120564 3 1.5H5C5 1.22513 5.22513 1 5.5 1V-1ZM3 1.5V14.5H5V1.5H3ZM3 14.5C3 15.8794 4.12056 17 5.5 17V15C5.22513 15 5 14.7749 5 14.5H3ZM5.5 17H12.5V15H5.5V17ZM12.5 17C13.8794 17 15 15.8794 15 14.5H13C13 14.7749 12.7749 15 12.5 15V17ZM15 14.5V1.5H13V14.5H15ZM15 1.5C15 0.120564 13.8794 -1 12.5 -1V1C12.7749 1 13 1.22513 13 1.5H15ZM5.5 2H12.5V0H5.5V2ZM12.5 2C12.2236 2 12 1.77641 12 1.5H14C14 0.671836 13.3282 0 12.5 0V2ZM12 1.5V12H14V1.5H12ZM13 11H5V13H13V11ZM6 12V1.5H4V12H6ZM6 1.5C6 1.77641 5.77641 2 5.5 2V0C4.67184 0 4 0.671836 4 1.5H6ZM12.5 14H5.5V16H12.5V14ZM5.5 14C5.77641 14 6 14.2236 6 14.5H4C4 15.3282 4.67184 16 5.5 16V14ZM6 14.5V13H4V14.5H6ZM5 14H13V12H5V14ZM12 13V14.5H14V13H12ZM12 14.5C12 14.2236 12.2236 14 12.5 14V16C13.3282 16 14 15.3282 14 14.5H12Z" fill="black" mask="url(#path-1-inside-1_1_313)"/>
</g>
<path d="M6.35355 13.7389C6.54882 13.9213 6.54882 14.2169 6.35355 14.3992C6.15828 14.5816 5.84172 14.5816 5.64645 14.3992C5.45118 14.2169 5.45118 13.9213 5.64645 13.7389C5.84172 13.5566 6.15828 13.5566 6.35355 13.7389Z" fill="#757575"/>
<defs>
<filter id="filter0_d_1_313" x="0" y="0" width="18" height="24" filterUnits="userSpaceOnUse" color-interpolation-filters="sRGB">
<feFlood flood-opacity="0" result="BackgroundImageFix"/>
<feColorMatrix in="SourceAlpha" type="matrix" values="0 0 0 0 0 0 0 0 0 0 0 0 0 0 0 0 0 0 127 0" result="hardAlpha"/>
<feOffset dy="4"/>
<feGaussianBlur stdDeviation="2"/>
<feComposite in2="hardAlpha" operator="out"/>
<feColorMatrix type="matrix" values="0 0 0 0 0 0 0 0 0 0 0 0 0 0 0 0 0 0 0.25 0"/>
<feBlend mode="normal" in2="BackgroundImageFix" result="effect1_dropShadow_1_313"/>
<feBlend mode="normal" in="SourceGraphic" in2="effect1_dropShadow_1_313" result="shape"/>
</filter>
</defs>
</svg>
